<?xml version="1.0" encoding="utf-8"?>
<!-- Generator: Adobe Illustrator 17.0.0, SVG Export Plug-In . SVG Version: 6.00 Build 0)  -->
<!DOCTYPE svg PUBLIC "-//W3C//DTD SVG 1.1//EN" "http://www.w3.org/Graphics/SVG/1.1/DTD/svg11.dtd">
<svg version="1.1" id="Calque_1" xmlns="http://www.w3.org/2000/svg" xmlns:xlink="http://www.w3.org/1999/xlink" x="0px" y="0px"
	 width="32px" height="32px" viewBox="0 0 32 32" enable-background="new 0 0 32 32" xml:space="preserve">
<path fill="#FFFFFF" d="M31.008,27.231l-7.58-6.447c-0.784-0.705-1.622-1.029-2.299-0.998c1.789-2.096,2.87-4.815,2.87-7.787
	c0-6.627-5.373-12-12-12s-12,5.373-12,12s5.373,12,12,12c2.972,0,5.691-1.081,7.787-2.87c-0.031,0.677,0.293,1.515,0.998,2.299
	l6.447,7.58c1.104,1.226,2.907,1.33,4.007,0.23S32.235,28.335,31.008,27.231z M12,20c-4.418,0-8-3.582-8-8s3.582-8,8-8s8,3.582,8,8
	S16.418,20,12,20z"/>
</svg>
